<svg width="20" height="20" viewBox="0 0 20 20" fill="none" xmlns="http://www.w3.org/2000/svg">
<g id="Heart">
<path id="Vector" fill-rule="evenodd" clip-rule="evenodd" d="M9.80051 17.3782C7.99167 16.2649 6.30893 14.9547 4.78242 13.471C3.70921 12.4024 2.89218 11.0998 2.39392 9.66284C1.49729 6.87526 2.54462 3.68403 5.47561 2.7396C7.01602 2.24369 8.69834 2.52713 9.99642 3.50124C11.2949 2.52832 12.9768 2.24499 14.5173 2.7396C17.4483 3.68403 18.5031 6.87526 17.6064 9.66284C17.1082 11.0998 16.2912 12.4024 15.2179 13.471C13.6914 14.9547 12.0087 16.2649 10.1998 17.3782L10.0039 17.5L9.80051 17.3782Z" stroke="#8F959E" stroke-width="1.5" stroke-linecap="round" stroke-linejoin="round"/>
<path id="Vector_2" d="M13.1162 5.8775C14.004 6.16109 14.6347 6.95809 14.7135 7.89582" stroke="#8F959E" stroke-width="1.5" stroke-linecap="round" stroke-linejoin="round"/>
</g>
</svg>
